<svg width="158" height="158" viewBox="0 0 158 158" fill="none" xmlns="http://www.w3.org/2000/svg">
<path d="M87.0544 47.8062C93.3006 47.8062 99.2909 50.2874 103.708 54.7041C108.124 59.1208 110.605 65.1111 110.605 71.3572C110.605 73.4392 111.433 75.436 112.905 76.9082C114.377 78.3804 116.374 79.2075 118.456 79.2075C120.538 79.2075 122.535 78.3804 124.007 76.9082C125.479 75.436 126.306 73.4392 126.306 71.3572C126.306 60.947 122.171 50.9632 114.81 43.602C107.448 36.2409 97.4646 32.1055 87.0544 32.1055C84.9724 32.1055 82.9756 32.9326 81.5034 34.4048C80.0312 35.877 79.2041 37.8738 79.2041 39.9558C79.2041 42.0379 80.0312 44.0346 81.5034 45.5068C82.9756 46.9791 84.9724 47.8062 87.0544 47.8062Z" fill="#14163E"/>
<path d="M87.0544 16.4038C101.629 16.4038 115.606 22.1934 125.912 32.499C136.217 42.8046 142.007 56.7819 142.007 71.3562C142.007 73.4383 142.834 75.435 144.306 76.9072C145.778 78.3795 147.775 79.2066 149.857 79.2066C151.939 79.2066 153.936 78.3795 155.408 76.9072C156.88 75.435 157.708 73.4383 157.708 71.3562C157.708 52.6179 150.264 34.647 137.014 21.3969C123.764 8.14691 105.793 0.703125 87.0544 0.703125C84.9724 0.703125 82.9756 1.53021 81.5034 3.00244C80.0312 4.47466 79.2041 6.47143 79.2041 8.55347C79.2041 10.6355 80.0312 12.6323 81.5034 14.1045C82.9756 15.5767 84.9724 16.4038 87.0544 16.4038Z" fill="#14163E"/>
<path d="M155.745 109.901C155.313 108.641 154.568 107.512 153.579 106.619C152.59 105.726 151.39 105.1 150.093 104.799L102.991 94.0437C101.712 93.7538 100.381 93.7887 99.1198 94.1453C97.8582 94.5018 96.706 95.1686 95.7683 96.0848C94.6693 97.1053 94.5908 97.1838 89.4881 106.918C72.5564 99.1163 58.9894 85.4936 51.2569 68.5301C61.2268 63.5059 61.3053 63.5059 62.3259 62.3283C63.2421 61.3906 63.9089 60.2384 64.2654 58.9769C64.6219 57.7153 64.6569 56.3845 64.367 55.106L53.612 8.55347C53.3109 7.25577 52.6845 6.05605 51.7919 5.06722C50.8992 4.0784 49.7695 3.33301 48.5093 2.90122C46.676 2.24642 44.7828 1.77313 42.857 1.48816C40.8729 1.02809 38.8481 0.765138 36.8123 0.703125C27.2349 0.703125 18.0498 4.50773 11.2775 11.28C4.50529 18.0522 0.700684 27.2373 0.700684 36.8147C0.742227 68.8654 13.4927 99.5914 36.156 122.255C58.8192 144.918 89.5453 157.668 121.596 157.71C126.338 157.71 131.034 156.776 135.415 154.961C139.797 153.146 143.777 150.486 147.131 147.133C150.484 143.78 153.144 139.799 154.959 135.418C156.773 131.036 157.708 126.341 157.708 121.598C157.71 119.6 157.552 117.605 157.237 115.632C156.907 113.682 156.408 111.765 155.745 109.901ZM121.596 142.009C93.703 141.989 66.9584 130.899 47.2351 111.176C27.5118 91.4522 16.4222 64.7077 16.4014 36.8147C16.422 31.4078 18.5791 26.2282 22.4024 22.4049C26.2257 18.5816 31.4053 16.4245 36.8123 16.4038H39.4029L47.8027 52.8294L43.5636 55.0275C36.8123 58.5602 31.474 61.3863 34.3002 67.5095C38.9022 80.5378 46.3486 92.3773 56.0985 102.168C65.8483 111.958 77.6567 119.454 90.6656 124.111C97.2599 126.78 99.8505 121.834 103.383 115.004L105.66 110.686L142.007 119.008V121.598C141.986 127.005 139.829 132.185 136.006 136.008C132.182 139.832 127.003 141.989 121.596 142.009Z" fill="#14163E"/>
</svg>
