<svg width="110" height="51" viewBox="0 0 110 51" fill="none" xmlns="http://www.w3.org/2000/svg">
<path d="M0 0V51H110V0H0Z" fill="#323B50"/>
<path d="M46.5842 22.7941C47.194 22.1107 48.0478 21.9213 48.7954 21.5693C49.0747 21.4375 49.5115 21.4128 49.6078 21.8636C49.6964 22.2774 49.3246 22.333 49.0334 22.3927C48.2308 22.5553 47.7488 23.1935 47.2471 23.7679C46.7789 24.3031 47.1252 24.7066 47.5796 25.0113C48.697 25.7627 49.8656 25.7524 51.0459 25.2007C52.2637 24.6305 53.3004 23.8193 54.0263 22.6192C54.1463 22.4195 54.2506 22.1354 54.528 22.2321C54.8821 22.3556 54.7168 22.6727 54.6893 22.9341C54.6086 23.7308 54.2663 24.6058 55.0355 25.2254C55.9011 25.9233 56.7943 25.526 57.6264 25.1101C58.7615 24.544 59.6802 23.6588 60.5773 22.753C60.9078 22.4195 61.2265 22.0757 61.5708 21.7586C62.0685 21.2996 62.6528 21.1658 63.1721 21.6413C63.7348 22.156 63.5892 22.8044 63.2528 23.4138C63.2036 23.5023 63.1367 23.5805 63.0757 23.6608C62.9794 23.7864 62.8023 23.9038 62.9813 24.0787C63.1112 24.2043 63.2961 24.2434 63.4043 24.0623C64.1715 22.7653 65.1256 23.0144 66.2312 23.56C67.1598 24.017 67.8503 23.387 68.4306 22.6768C68.8162 22.2054 69.19 21.7463 69.8235 21.6125C70.7697 21.4128 71.4248 21.878 71.3737 22.8847C71.3166 24.0623 71.8202 24.9269 72.7232 25.4025C73.6045 25.8677 74.5331 25.4827 75.2984 24.9001C75.9043 24.4411 76.4315 23.8667 77 23.352C77.1614 23.2079 77.3266 22.9383 77.5745 23.1771C77.7397 23.3376 77.6512 23.5558 77.5647 23.7473C77.0099 24.9804 74.5272 26.4997 73.2249 26.4112C72.4085 26.3556 71.8419 25.8471 71.3146 25.2707C71.1179 25.0545 70.9546 24.8075 70.7717 24.5687C70.333 25.0669 69.9749 25.5568 69.5382 25.9542C68.7297 26.6891 67.8149 26.4132 67.628 25.3283C67.506 24.6181 67.207 24.4164 66.5873 24.4493C66.1545 24.474 65.7571 24.297 65.3656 24.1076C65.0509 23.9552 64.7243 23.6814 64.3958 24.087C64.0987 24.4555 63.7781 24.8178 63.9413 25.3654C64.3112 26.6088 64.1636 27.8193 63.6305 28.9598C63.3571 29.5424 63.5617 29.6144 64.0535 29.7236C67.51 30.4811 70.994 31.0473 74.4898 31.5475C77.0138 31.9078 79.528 32.3442 82.0599 32.6201C86.3839 33.0915 90.7257 33.5156 95.0674 33.1039C97.0799 32.9145 99.1947 32.7992 100.896 31.2964C101.182 31.8522 100.818 32.0066 100.529 32.2042C99.1711 33.1306 97.6111 33.4518 96.0648 33.6412C92.691 34.0549 89.3112 34.0323 85.9078 33.8038C83.195 33.6206 80.5018 33.3077 77.8125 32.97C74.8361 32.5974 71.8871 31.9737 68.9343 31.4096C67.1677 31.072 65.4188 30.6335 63.66 30.2526C63.3413 30.1826 63.0246 30.1332 62.822 30.5511C62.4659 31.2819 61.86 31.741 61.1714 32.1033C60.8999 32.2454 60.6836 32.7456 60.357 32.4513C60.0658 32.1878 59.8298 31.776 59.8376 31.3067C59.8632 29.9459 59.8632 29.9665 58.5628 29.9768C57.292 29.985 56.2179 30.5285 55.1969 31.2408C54.7916 31.5249 54.3785 31.7534 53.9398 31.389C51.6558 29.4909 48.9783 29.6741 46.415 30.1312C42.7244 30.7879 39.0751 31.7225 35.3747 32.338C31.57 32.97 27.7535 33.5197 23.8977 33.7791C20.8897 33.9829 17.8916 34.1023 14.8876 33.882C12.698 33.7214 10.5242 33.4209 8.57858 32.2186C8.35431 32.0807 7.86053 32.0354 8.03758 31.6525C8.23431 31.2243 8.53923 31.6299 8.7635 31.7678C10.5498 32.8733 12.5623 33.0215 14.5394 33.1491C18.9225 33.4332 23.2819 33.0442 27.6394 32.4966C30.0395 32.1939 32.4415 31.9181 34.8278 31.5166C38.18 30.9546 41.546 30.4853 44.8726 29.7544C47.4675 29.1842 50.0839 28.5954 52.663 29.8718C52.7515 29.915 52.8755 29.915 52.9345 29.9829C54.0126 31.2037 54.9942 30.8188 56.1647 30.0056C57.1877 29.2954 58.4369 28.9783 59.7216 29.1595C60.2606 29.2357 60.5144 28.9989 60.7583 28.4842C61.2226 27.5064 61.7537 26.5491 62.3675 25.6701C62.8436 24.9887 62.643 24.6963 62.0056 24.4966C61.681 24.3937 61.317 24.3175 61.3209 23.8955C61.3249 23.4817 61.7203 23.5311 61.9859 23.4344C62.1374 23.3809 62.2711 23.2697 62.4029 23.1709C62.6567 22.9794 62.8948 22.7221 62.6784 22.403C62.4265 22.0304 62.1216 22.3104 61.9328 22.5121C61.1793 23.3232 60.4258 24.1343 59.5602 24.8178C58.4782 25.6721 57.351 26.3515 55.9149 26.3597C55.0178 26.3659 54.3922 26.0489 53.9929 25.2439C53.7116 24.6778 53.5089 24.5049 52.9129 24.9845C51.6656 25.985 50.2433 26.5697 48.6124 26.3288C47.979 26.2362 47.3888 26.0345 46.9481 25.5363C46.4563 24.9784 46.1297 25.1389 45.8327 25.7277C45.7068 25.9809 45.6674 26.4277 45.2681 26.2877C44.8766 26.1497 44.969 25.7257 44.9946 25.3901C45.0182 25.0854 45.0812 24.7869 45.1559 24.2949C44.188 25.3695 43.1808 26.0983 41.9414 26.3453C40.5171 26.6273 39.6102 25.7709 38.8174 24.6016C38.3276 25.0237 38.0934 25.666 37.578 26.0386C36.7242 26.6562 36.0416 26.5203 35.7406 25.5054C35.5399 24.826 35.3176 24.9948 34.936 25.246C34.0979 25.7936 33.2264 26.2383 32.2172 26.3453C30.9601 26.4791 30.2559 26.0715 29.6795 24.9187C29.4277 24.4164 29.5437 23.595 28.6525 23.56C28.4381 23.5517 28.4401 23.1297 28.6152 22.9465C29.2113 22.3227 29.1286 21.5198 29.2408 20.7478C29.3273 20.157 29.0932 20.085 28.6742 20.1179C28.0211 20.1652 27.3719 20.2455 26.7187 20.2846C26.4295 20.3011 26.0558 20.2991 26.0381 19.8894C26.0184 19.4633 26.4079 19.4818 26.6892 19.4447C27.1437 19.3871 27.6178 19.2553 28.0545 19.3336C29.286 19.5538 29.6795 18.8827 29.8172 17.7649C29.9155 16.9723 30.3169 16.2826 30.7123 15.6136C30.968 15.1813 31.3674 14.8704 31.8651 15.0536C32.3412 15.2286 32.3805 15.7165 32.3215 16.1838C32.2605 16.6573 32.2172 17.139 32.1012 17.6002C31.9851 18.0572 31.7903 18.4895 31.6093 18.9898C32.589 18.9898 33.5215 18.9815 34.454 18.9959C34.7294 19.0001 35.1268 18.928 35.1465 19.3583C35.1662 19.7844 34.7609 19.7803 34.4894 19.8029C33.6101 19.875 32.7268 19.947 31.8454 19.9388C31.3772 19.9347 31.1411 20.1364 30.911 20.5193C30.2421 21.6392 29.6421 22.7303 30.191 24.1446C30.6611 25.3592 31.3457 25.8286 32.5536 25.4807C33.6691 25.1575 34.6822 24.614 35.5045 23.7308C36.0986 23.0926 36.6928 22.4565 37.3085 21.843C37.7433 21.4087 38.2862 21.4087 38.7702 21.6928C39.2069 21.9501 39.4843 22.3598 39.4036 22.9712C39.2718 23.9552 39.6909 24.7313 40.4522 25.2378C41.2352 25.7607 42.1086 25.7154 42.87 25.1822C44.2294 24.227 45.4176 23.1976 45.7894 21.3057C46.1553 19.4468 46.5724 17.5487 47.5816 15.8956C47.8963 15.3809 48.2504 14.8395 48.8937 15.1195C49.4918 15.381 49.3619 16.0253 49.2774 16.5729C49.0157 18.2589 48.3252 19.77 47.5167 21.2296C47.2235 21.7607 46.8989 22.2712 46.5881 22.7921L46.5842 22.7941ZM70.5494 22.7097C70.3881 22.2754 70.0399 22.3351 69.6976 22.4915C69.072 22.7756 68.23 24.2517 68.3067 24.9413C68.3559 25.3777 68.5447 25.6495 69.0287 25.4025C69.5539 25.1348 70.6025 23.3438 70.5494 22.7097ZM36.3741 24.7869C36.3859 25.0689 36.3367 25.2975 36.5354 25.4251C36.7734 25.5774 36.978 25.4395 37.1551 25.283C37.8003 24.7128 38.1643 23.9573 38.424 23.1338C38.4928 22.9177 38.7092 22.7056 38.4712 22.4895C38.2371 22.2754 37.9715 22.3804 37.7413 22.5142C36.8639 23.0247 36.5157 23.8811 36.3721 24.7849L36.3741 24.7869ZM63.178 25.7545C62.5564 26.8064 62.0528 27.6567 61.5531 28.509C61.4075 28.758 61.1183 29.0854 61.5393 29.2624C61.917 29.4209 62.4698 29.7812 62.7511 29.2089C63.239 28.2146 63.6108 27.1564 63.178 25.7565V25.7545ZM46.653 21.1555C47.5206 19.5332 48.3272 17.8863 48.4963 16.0006C47.5088 17.5775 47.0543 19.3562 46.653 21.1555ZM30.4526 19.0248C31.1962 18.3145 31.3005 17.3408 31.5916 16.4514C31.6251 16.3485 31.5916 16.1488 31.5189 16.0932C31.3477 15.9594 31.1943 16.1159 31.1195 16.2559C30.6651 17.1143 30.3149 18.0037 30.4526 19.0248ZM62.1256 30.0282C61.6495 30.2567 60.9236 29.5959 60.6442 30.5161C60.5714 30.7549 60.6599 30.9299 60.8881 30.9752C61.5452 31.109 61.9072 30.7199 62.1256 30.0262V30.0282Z" fill="url(#paint0_linear_249_648)"/>
<path d="M53.6984 19.8843C53.8876 19.607 54.1989 19.3964 54.6285 19.3505C54.9004 19.3223 55.0265 19.5121 54.9714 19.6974C54.861 20.0681 54.4393 20.1571 54.0196 20.1942C53.7989 20.2134 53.6787 20.0844 53.6984 19.8828V19.8843Z" fill="white"/>
<path d="M53.7441 34.3119C53.6895 34.3435 53.6403 34.3454 53.6043 34.4164C53.4438 34.728 53.2298 34.866 53.0136 34.9902C52.7253 35.1578 52.4305 35.1716 52.1324 35.1125C52.104 35.1065 52.0767 35.0947 52.0494 35.0809C52.0265 35.0691 51.997 35.0612 52.0003 35.0001C52.0024 34.9527 52.0286 34.9527 52.0472 34.937C52.2754 34.724 52.4654 34.4223 52.6489 34.1029C52.7952 33.8466 52.912 33.5469 53.0125 33.2373C53.1533 32.8055 53.2833 32.354 53.2985 31.8334C53.304 31.654 53.3324 31.4825 53.3553 31.3109C53.3706 31.1946 53.4154 31.1078 53.4853 31.0822C53.53 31.0664 53.5759 31.0408 53.6207 31.0428C53.9886 31.0644 54.3544 30.956 54.7235 31.0211C54.9517 31.0625 55.1832 31.0152 55.4125 31.0704C55.5414 31.1019 55.5949 31.1512 55.5916 31.3839C55.585 31.9537 55.7095 32.4604 55.834 32.9534C55.9596 33.4503 56.1343 33.9038 56.38 34.2469C56.4498 34.3435 56.5143 34.4539 56.5754 34.5683C56.6584 34.722 56.7676 34.8009 56.8648 34.9133C56.8855 34.937 56.9292 34.9212 56.9215 35.0001C56.9139 35.077 56.8768 35.0967 56.8407 35.1006C56.6049 35.1302 56.3701 35.1736 56.1332 35.0848C55.8875 34.9922 55.656 34.8482 55.4475 34.5978C55.4038 34.5466 55.3677 34.4736 55.3273 34.4105C55.3 34.3671 55.2695 34.3297 55.2313 34.3632C55.193 34.3967 55.2105 34.4618 55.2105 34.517C55.2105 34.7753 55.2127 35.0277 55.1767 35.2899C55.1472 35.5088 55.1461 35.7474 55.1111 35.9761C55.0478 36.3823 54.9244 36.7313 54.7901 37.0645C54.7159 37.2479 54.6558 37.4529 54.5543 37.6028C54.4789 37.7171 54.4254 37.6955 54.3664 37.5752C54.2005 37.2419 54.0596 36.8811 53.9439 36.4808C53.7845 35.9307 53.7168 35.3491 53.7058 34.7359C53.7037 34.5939 53.7375 34.4637 53.743 34.308L53.7441 34.3119Z" fill="white"/>
<defs>
<linearGradient id="paint0_linear_249_648" x1="8" y1="24.5" x2="101" y2="24.5" gradientUnits="userSpaceOnUse">
<stop stop-color="white"/>
<stop offset="1" stop-color="#999999"/>
</linearGradient>
</defs>
</svg>
