<svg width="180" height="64" viewBox="0 0 180 64" fill="none" xmlns="http://www.w3.org/2000/svg">
<g clip-path="url(#clip0_221_665)">
<path d="M180 64V0H0V64H180Z" fill="#293070"/>
<path d="M81.9309 31.0182C82.6064 30.6611 83.5521 30.5621 84.3801 30.3782C84.6896 30.3093 85.1733 30.2964 85.2801 30.532C85.3781 30.7482 84.9663 30.7773 84.6438 30.8085C83.7547 30.8934 83.2209 31.2269 82.6652 31.5271C82.1466 31.8068 82.5301 32.0176 83.0335 32.1768C84.2712 32.5695 85.5655 32.5641 86.873 32.2758C88.2218 31.9778 89.3702 31.554 90.1742 30.9268C90.3072 30.8224 90.4226 30.674 90.7299 30.7245C91.1221 30.7891 90.9391 30.9548 90.9086 31.0914C90.8192 31.5077 90.4401 31.9649 91.2921 32.2887C92.2509 32.6534 93.2402 32.4458 94.1619 32.2285C95.4192 31.9326 96.4368 31.4701 97.4305 30.9967C97.7966 30.8224 98.1496 30.6428 98.5309 30.4771C99.0822 30.2372 99.7294 30.1673 100.305 30.4158C100.928 30.6847 100.767 31.0236 100.394 31.342C100.34 31.3883 100.265 31.4292 100.198 31.4711C100.091 31.5368 99.895 31.5981 100.093 31.6895C100.237 31.7551 100.442 31.7756 100.562 31.6809C101.412 31.0032 102.468 31.1333 103.693 31.4184C104.722 31.6572 105.486 31.3281 106.129 30.9569C106.556 30.7106 106.97 30.4707 107.672 30.4007C108.72 30.2964 109.446 30.5395 109.389 31.0656C109.326 31.6809 109.884 32.1327 110.884 32.3812C111.86 32.6244 112.889 32.4232 113.736 32.1187C114.407 31.8789 114.991 31.5787 115.621 31.3098C115.8 31.2345 115.983 31.0935 116.258 31.2183C116.441 31.3022 116.342 31.4163 116.247 31.5163C115.632 32.1607 112.882 32.9546 111.44 32.9084C110.535 32.8793 109.908 32.6136 109.324 32.3124C109.106 32.1994 108.925 32.0703 108.722 31.9455C108.236 32.2059 107.84 32.4619 107.356 32.6695C106.46 33.0536 105.447 32.9094 105.24 32.3425C105.105 31.9714 104.774 31.8659 104.087 31.8832C103.608 31.8961 103.168 31.8035 102.734 31.7046C102.386 31.625 102.024 31.4819 101.66 31.6938C101.331 31.8864 100.976 32.0757 101.157 32.3619C101.566 33.0116 101.403 33.6442 100.812 34.2402C100.509 34.5446 100.736 34.5823 101.281 34.6393C105.109 35.0352 108.969 35.331 112.841 35.5924C115.636 35.7807 118.421 36.0087 121.226 36.1529C126.015 36.3992 130.824 36.6208 135.634 36.4057C137.863 36.3067 140.205 36.2465 142.09 35.4612C142.406 35.7516 142.003 35.8323 141.683 35.9356C140.179 36.4197 138.451 36.5875 136.738 36.6865C133.001 36.9027 129.258 36.8909 125.488 36.7715C122.483 36.6757 119.5 36.5122 116.521 36.3358C113.224 36.1411 109.958 35.8151 106.687 35.5203C104.73 35.3439 102.793 35.1148 100.845 34.9158C100.492 34.8792 100.141 34.8534 99.9168 35.0717C99.5224 35.4536 98.8512 35.6935 98.0886 35.8829C97.7878 35.9571 97.5481 36.2185 97.1864 36.0647C96.8639 35.927 96.6024 35.7118 96.6112 35.4665C96.6395 34.7555 96.6395 34.7662 95.1991 34.7716C93.7915 34.7759 92.6017 35.0599 91.4708 35.4321C91.0219 35.5806 90.5643 35.7 90.0784 35.5096C87.5485 34.5177 84.5828 34.6135 81.7435 34.8523C77.6556 35.1955 73.6134 35.6839 69.5146 36.0055C65.3003 36.3358 61.073 36.623 56.802 36.7585C53.4703 36.865 50.1494 36.9274 46.822 36.8123C44.3967 36.7284 41.9888 36.5714 39.8337 35.9431C39.5853 35.871 39.0384 35.8474 39.2345 35.6473C39.4524 35.4235 39.7902 35.6354 40.0386 35.7075C42.0171 36.2852 44.2463 36.3627 46.4363 36.4294C51.2912 36.5778 56.12 36.3745 60.9466 36.0883C63.605 35.9302 66.2657 35.786 68.9088 35.5763C72.622 35.2826 76.3503 35.0373 80.0351 34.6554C82.9093 34.3574 85.8074 34.0498 88.6641 34.7167C88.7622 34.7393 88.8995 34.7393 88.9649 34.7748C90.159 35.4128 91.2463 35.2116 92.5429 34.7867C93.676 34.4155 95.0597 34.2498 96.4826 34.3445C97.0796 34.3843 97.3608 34.2606 97.631 33.9917C98.1452 33.4807 98.7336 32.9804 99.4134 32.5211C99.9407 32.165 99.7185 32.0122 99.0125 31.9079C98.6529 31.8541 98.2498 31.8143 98.2542 31.5938C98.2585 31.3775 98.6965 31.4034 98.9907 31.3528C99.1585 31.3248 99.3066 31.2667 99.4526 31.2151C99.7337 31.1151 99.9974 30.9806 99.7577 30.8138C99.4788 30.6191 99.141 30.7654 98.9318 30.8709C98.0973 31.2947 97.2627 31.7186 96.3039 32.0757C95.1054 32.5222 93.8568 32.8772 92.2661 32.8815C91.2725 32.8847 90.5795 32.719 90.1372 32.2984C89.8256 32.0026 89.6011 31.9122 88.9409 32.1629C87.5594 32.6857 85.9839 32.9912 84.1775 32.8653C83.4758 32.8169 82.8221 32.7115 82.334 32.4512C81.7892 32.1596 81.4275 32.2435 81.0985 32.5512C80.959 32.6835 80.9154 32.917 80.4731 32.8438C80.0395 32.7717 80.1419 32.5501 80.1702 32.3748C80.1963 32.2156 80.2661 32.0596 80.3489 31.8025C79.2768 32.364 78.1611 32.7448 76.7883 32.8739C75.2107 33.0213 74.2061 32.5738 73.328 31.9628C72.7854 32.1833 72.5261 32.5189 71.9552 32.7136C71.0095 33.0364 70.2533 32.9654 69.9199 32.435C69.6977 32.08 69.4514 32.1682 69.0287 32.2995C68.1004 32.5856 67.1351 32.818 66.0172 32.8739C64.6248 32.9439 63.8447 32.7309 63.2063 32.1284C62.9273 31.8659 63.0559 31.4367 62.0688 31.4184C61.8313 31.4141 61.8335 31.1936 62.0274 31.0978C62.6876 30.7719 62.5961 30.3523 62.7203 29.9489C62.8162 29.6402 62.5569 29.6025 62.0928 29.6197C61.3693 29.6445 60.6502 29.6864 59.9268 29.7069C59.6065 29.7155 59.1924 29.7144 59.1728 29.5003C59.151 29.2776 59.5825 29.2873 59.8941 29.268C60.3975 29.2378 60.9226 29.169 61.4064 29.2099C62.7705 29.325 63.2063 28.9743 63.3588 28.3901C63.4678 27.976 63.9123 27.6156 64.3503 27.2659C64.6335 27.04 65.0759 26.8776 65.6272 26.9733C66.1545 27.0648 66.1981 27.3197 66.1327 27.5639C66.0652 27.8114 66.0172 28.0631 65.8887 28.3041C65.7601 28.5429 65.5444 28.7688 65.3439 29.0302C66.4291 29.0302 67.462 29.0259 68.4948 29.0334C68.7999 29.0356 69.2401 28.9979 69.2619 29.2228C69.2836 29.4455 68.8348 29.4433 68.534 29.4551C67.56 29.4928 66.5816 29.5304 65.6054 29.5261C65.0868 29.524 64.8253 29.6294 64.5704 29.8295C63.8295 30.4147 63.1649 30.9849 63.7728 31.7239C64.2936 32.3586 65.0519 32.6039 66.3899 32.4221C67.6254 32.2532 68.7476 31.9692 69.6584 31.5077C70.3165 31.1742 70.9746 30.8418 71.6566 30.5212C72.1382 30.2942 72.7396 30.2942 73.2757 30.4427C73.7594 30.5772 74.0667 30.7912 73.9773 31.1108C73.8313 31.625 74.2955 32.0305 75.1388 32.2952C76.006 32.5684 76.9735 32.5448 77.8168 32.2661C79.3225 31.767 80.6387 31.2291 81.0505 30.2404C81.4558 29.269 81.9178 28.2772 83.0357 27.4133C83.3843 27.1444 83.7765 26.8615 84.4891 27.0078C85.1515 27.1444 85.0077 27.4811 84.914 27.7673C84.6242 28.6483 83.8593 29.4379 82.9637 30.2006C82.6391 30.4782 82.2795 30.745 81.9352 31.0172L81.9309 31.0182ZM108.476 30.9741C108.297 30.7471 107.912 30.7783 107.533 30.8601C106.84 31.0086 105.907 31.7799 105.992 32.1403C106.046 32.3683 106.256 32.5103 106.792 32.3812C107.373 32.2414 108.535 31.3055 108.476 30.9741ZM70.6216 32.0596C70.6347 32.207 70.5802 32.3264 70.8003 32.3931C71.0639 32.4727 71.2906 32.4006 71.4867 32.3188C72.2014 32.0209 72.6045 31.626 72.8922 31.1957C72.9684 31.0828 73.2081 30.972 72.9445 30.859C72.6851 30.7471 72.391 30.802 72.136 30.8719C71.1642 31.1387 70.7785 31.5862 70.6194 32.0585L70.6216 32.0596ZM100.311 32.5652C99.6226 33.1149 99.0648 33.5592 98.5113 34.0046C98.35 34.1347 98.0297 34.3058 98.496 34.3983C98.9144 34.4811 99.5267 34.6694 99.8383 34.3703C100.379 33.8507 100.791 33.2978 100.311 32.5663V32.5652ZM82.0071 30.1619C82.9681 29.3142 83.8615 28.4536 84.0489 27.4682C82.955 28.2922 82.4517 29.2217 82.0071 30.1619ZM64.0626 29.0485C64.8863 28.6774 65.0018 28.1685 65.3243 27.7038C65.3613 27.65 65.3243 27.5456 65.2437 27.5166C65.0541 27.4467 64.8841 27.5284 64.8013 27.6016C64.298 28.0502 63.9101 28.5149 64.0626 29.0485ZM99.1454 34.7985C98.6181 34.9179 97.814 34.5726 97.5046 35.0534C97.4239 35.1782 97.522 35.2697 97.7748 35.2933C98.5026 35.3633 98.9035 35.16 99.1454 34.7974V34.7985Z" fill="white"/>
<path d="M107.17 30.1276C107.379 29.9264 107.723 29.7737 108.198 29.7403C108.499 29.7199 108.638 29.8576 108.577 29.992C108.455 30.261 107.989 30.3255 107.525 30.3524C107.281 30.3664 107.148 30.2728 107.17 30.1265V30.1276Z" fill="white"/>
<path d="M89.9415 38.171C89.8934 38.1994 89.8501 38.2011 89.8184 38.2649C89.6769 38.5448 89.4884 38.6688 89.2979 38.7804C89.0439 38.931 88.7841 38.9434 88.5214 38.8903C88.4964 38.885 88.4724 38.8743 88.4483 38.8619C88.4281 38.8513 88.4021 38.8442 88.405 38.7893C88.4069 38.7468 88.43 38.7468 88.4464 38.7326C88.6475 38.5413 88.8149 38.2702 88.9765 37.9832C89.1054 37.7529 89.2084 37.4836 89.2969 37.2055C89.421 36.8175 89.5355 36.4118 89.549 35.9441C89.5538 35.7829 89.5788 35.6288 89.599 35.4747C89.6125 35.3701 89.6519 35.2922 89.7135 35.2692C89.753 35.255 89.7934 35.232 89.8328 35.2337C90.1571 35.2532 90.4794 35.1558 90.8046 35.2142C91.0057 35.2514 91.2096 35.2089 91.4117 35.2585C91.5252 35.2869 91.5724 35.3312 91.5695 35.5402C91.5637 36.0522 91.6734 36.5075 91.7831 36.9504C91.8937 37.3968 92.0477 37.8043 92.2641 38.1126C92.3257 38.1994 92.3825 38.2986 92.4364 38.4013C92.5095 38.5395 92.6057 38.6104 92.6913 38.7113C92.7096 38.7326 92.7481 38.7184 92.7414 38.7893C92.7346 38.8584 92.7019 38.8761 92.6702 38.8796C92.4623 38.9062 92.2555 38.9452 92.0467 38.8655C91.8302 38.7822 91.6262 38.6529 91.4425 38.4279C91.404 38.3818 91.3722 38.3163 91.3366 38.2596C91.3126 38.2206 91.2856 38.187 91.252 38.2171C91.2183 38.2472 91.2337 38.3057 91.2337 38.3553C91.2337 38.5873 91.2356 38.8141 91.2039 39.0497C91.1779 39.2464 91.1769 39.4607 91.1461 39.6662C91.0903 40.0312 90.9816 40.3448 90.8633 40.6441C90.7978 40.8089 90.7449 40.9931 90.6554 41.1278C90.5891 41.2305 90.5419 41.2111 90.49 41.103C90.3437 40.8036 90.2196 40.4794 90.1176 40.1198C89.9771 39.6255 89.9175 39.1029 89.9079 38.5519C89.9059 38.4244 89.9358 38.3074 89.9406 38.1675L89.9415 38.171Z" fill="white"/>
</g>
<defs>
<clipPath id="clip0_221_665">
<rect width="64" height="180" fill="white" transform="matrix(0 1 -1 0 180 0)"/>
</clipPath>
</defs>
</svg>
